<?xml version="1.0" standalone="no"?>
<!DOCTYPE svg PUBLIC "-//W3C//DTD SVG 20010904//EN"
 "http://www.w3.org/TR/2001/REC-SVG-20010904/DTD/svg10.dtd">
<svg version="1.0" xmlns="http://www.w3.org/2000/svg"
 width="512.000000pt" height="512.000000pt" viewBox="0 0 512.000000 512.000000"
 preserveAspectRatio="xMidYMid meet">
<metadata>
Created by Jayden Major
</metadata>
<g transform="translate(0.000000,512.000000) scale(0.100000,-0.100000)"
fill="#373b43" stroke="none">
<path d="M0 2560 l0 -2560 2560 0 2560 0 0 2560 0 2560 -2560 0 -2560 0 0
-2560z m2025 2000 c13 -11 15 -102 15 -750 0 -610 -2 -740 -14 -749 -9 -8
-172 -10 -587 -9 l-574 3 -3 743 c-1 432 2 750 7 760 8 16 52 17 575 16 439
-1 569 -4 581 -14z m-1280 -350 c3 -5 6 -288 6 -627 -1 -340 3 -624 7 -630 6
-10 114 -13 463 -15 l454 -3 3 -100 c2 -55 0 -110 -3 -122 l-5 -23 -568 0
c-428 0 -571 3 -580 12 -18 18 -17 1504 1 1511 23 10 216 7 222 -3z m2279
-404 c155 -30 255 -78 360 -173 104 -95 169 -209 206 -363 l22 -90 67 5 c36 3
78 8 94 10 37 6 35 -10 -13 -79 -22 -31 -40 -59 -40 -62 0 -3 -18 -32 -40 -65
-22 -33 -40 -63 -40 -66 0 -3 -13 -25 -30 -50 -16 -24 -30 -48 -30 -54 0 -5
-4 -9 -9 -9 -5 0 -11 -9 -14 -20 -3 -11 -9 -20 -15 -20 -12 0 -107 101 -255
274 -10 12 -34 39 -54 61 -25 27 -32 41 -22 42 7 1 54 5 102 8 l89 7 -7 46
c-11 73 -68 180 -132 249 -83 89 -182 134 -308 140 -88 5 -122 0 -216 -30
l-45 -14 -48 90 c-37 70 -44 92 -34 98 33 21 176 62 241 69 40 4 77 8 84 9 6
0 45 -5 87 -13z m728 -1485 c57 -27 129 -68 160 -92 31 -24 90 -70 131 -101
41 -32 77 -58 80 -58 3 0 26 -14 51 -30 117 -79 253 -120 402 -120 84 0 103
-3 108 -16 9 -24 -567 -596 -600 -596 -36 0 -824 788 -824 823 0 17 25 50 88
111 117 115 139 128 229 128 66 0 81 -4 175 -49z m-165 -683 c305 -305 403
-409 403 -427 0 -17 -30 -53 -107 -127 -163 -159 -185 -160 -340 -12 -119 114
-128 114 -225 21 -39 -38 -98 -108 -131 -158 -85 -127 -240 -282 -337 -339
-43 -25 -90 -48 -104 -52 -14 -3 -29 -10 -32 -15 -3 -5 -25 -9 -50 -9 -47 0
-100 27 -141 71 -27 30 -63 95 -63 114 0 21 87 192 131 255 47 70 147 168 226
223 181 125 211 148 240 178 17 19 37 47 42 62 22 58 15 75 -74 167 -93 97
-120 144 -109 193 9 41 218 257 248 257 14 0 151 -130 423 -402z"/>
</g>
</svg>
